<svg width="1600" height="1200" viewBox="0 0 1600 1200" fill="none" xmlns="http://www.w3.org/2000/svg">
<rect width="1600" height="1200" fill="white"/>
<rect width="1600" height="1200" fill="black"/>
<rect width="1600" height="1200" fill="white"/>
<mask id="mask0_1_2" style="mask-type:alpha" maskUnits="userSpaceOnUse" x="0" y="0" width="1600" height="1200">
<rect x="0.5" y="0.5" width="1599" height="1199" rx="9.5" fill="white" stroke="white" stroke-linejoin="round"/>
</mask>
<g mask="url(#mask0_1_2)">
<g filter="url(#filter0_f_1_2)">
<circle r="538" transform="matrix(-1 0 0 1 394 615.5)" fill="url(#paint0_radial_1_2)"/>
</g>
</g>
<g filter="url(#filter1_b_1_2)">
<rect x="50" y="101" width="1500" height="998" fill="#F1F4FF" fill-opacity="0.1"/>
</g>
<circle cx="766.5" cy="355.5" r="33.5" fill="#FF9890"/>
<g filter="url(#filter2_f_1_2)">
<circle cx="205.5" cy="458.5" r="74.5" fill="#FF9890"/>
</g>
<circle cx="512" cy="829" r="20" fill="url(#paint1_linear_1_2)"/>
<g filter="url(#filter3_bd_1_2)">
<path d="M1077.75 351C1088.8 351 1097.75 359.954 1097.75 371V810C1097.75 821.046 1088.8 830 1077.75 830H97C85.9543 830 77 821.046 77 810V371C77 359.954 85.9543 351 97 351H1077.75Z" fill="url(#paint2_linear_1_2)"/>
<path d="M1077.75 351C1088.8 351 1097.75 359.954 1097.75 371V810C1097.75 821.046 1088.8 830 1077.75 830H97C85.9543 830 77 821.046 77 810V371C77 359.954 85.9543 351 97 351H1077.75Z" stroke="white"/>
</g>
<path d="M113.864 402.126C112.725 402.126 111.848 401.692 111.232 400.824C110.625 399.947 110.322 398.691 110.322 397.058C110.322 395.397 110.625 394.141 111.232 393.292C111.848 392.433 112.725 392.004 113.864 392.004C115.012 392.004 115.889 392.433 116.496 393.292C117.103 394.141 117.406 395.392 117.406 397.044C117.406 398.687 117.098 399.947 116.482 400.824C115.875 401.692 115.003 402.126 113.864 402.126ZM113.864 400.908C114.583 400.908 115.115 400.595 115.46 399.97C115.815 399.345 115.992 398.369 115.992 397.044C115.992 395.709 115.815 394.739 115.46 394.132C115.115 393.516 114.583 393.208 113.864 393.208C113.155 393.208 112.623 393.516 112.268 394.132C111.913 394.739 111.736 395.705 111.736 397.03C111.736 398.365 111.913 399.345 112.268 399.97C112.632 400.595 113.164 400.908 113.864 400.908ZM119.739 402V400.782H122.035V393.362H122.763L119.963 395.07V393.67L122.441 392.13H123.491V400.782H125.647V402H119.739Z" fill="black" fill-opacity="0.5"/>
<path d="M113.864 789.126C112.725 789.126 111.848 788.692 111.232 787.824C110.625 786.947 110.322 785.691 110.322 784.058C110.322 782.397 110.625 781.141 111.232 780.292C111.848 779.433 112.725 779.004 113.864 779.004C115.012 779.004 115.889 779.433 116.496 780.292C117.103 781.141 117.406 782.392 117.406 784.044C117.406 785.687 117.098 786.947 116.482 787.824C115.875 788.692 115.003 789.126 113.864 789.126ZM113.864 787.908C114.583 787.908 115.115 787.595 115.46 786.97C115.815 786.345 115.992 785.369 115.992 784.044C115.992 782.709 115.815 781.739 115.46 781.132C115.115 780.516 114.583 780.208 113.864 780.208C113.155 780.208 112.623 780.516 112.268 781.132C111.913 781.739 111.736 782.705 111.736 784.03C111.736 785.365 111.913 786.345 112.268 786.97C112.632 787.595 113.164 787.908 113.864 787.908ZM122.595 789.126C121.372 789.126 120.429 788.701 119.767 787.852C119.113 787.003 118.787 785.813 118.787 784.282C118.787 783.143 118.955 782.187 119.291 781.412C119.627 780.628 120.103 780.031 120.719 779.62C121.344 779.209 122.095 779.004 122.973 779.004C123.495 779.004 124.018 779.107 124.541 779.312C125.063 779.508 125.502 779.788 125.857 780.152L125.339 781.244C124.993 780.908 124.615 780.656 124.205 780.488C123.794 780.32 123.379 780.236 122.959 780.236C122.053 780.236 121.363 780.553 120.887 781.188C120.411 781.813 120.173 782.751 120.173 784.002V785.192H120.033C120.098 784.688 120.257 784.254 120.509 783.89C120.761 783.517 121.087 783.232 121.489 783.036C121.89 782.84 122.338 782.742 122.833 782.742C123.421 782.742 123.939 782.877 124.387 783.148C124.844 783.419 125.203 783.792 125.465 784.268C125.726 784.735 125.857 785.271 125.857 785.878C125.857 786.503 125.717 787.063 125.437 787.558C125.157 788.053 124.769 788.44 124.275 788.72C123.789 788.991 123.229 789.126 122.595 789.126ZM122.511 787.95C122.903 787.95 123.243 787.866 123.533 787.698C123.831 787.53 124.065 787.297 124.233 786.998C124.401 786.69 124.485 786.335 124.485 785.934C124.485 785.533 124.401 785.183 124.233 784.884C124.065 784.585 123.831 784.352 123.533 784.184C123.243 784.007 122.903 783.918 122.511 783.918C122.119 783.918 121.773 784.007 121.475 784.184C121.176 784.352 120.943 784.585 120.775 784.884C120.607 785.183 120.523 785.533 120.523 785.934C120.523 786.335 120.607 786.69 120.775 786.998C120.943 787.297 121.176 787.53 121.475 787.698C121.773 787.866 122.119 787.95 122.511 787.95Z" fill="black" fill-opacity="0.5"/>
<path fill-rule="evenodd" clip-rule="evenodd" d="M120.552 416H122.594V766H120.552V416Z" fill="white"/>
<path fill-rule="evenodd" clip-rule="evenodd" d="M120.552 573H122.594V633H120.552V573Z" fill="black"/>
<path d="M994 712L1000.43 716.269C1005.93 719.917 1013.24 719.221 1017.95 714.6L1018.67 713.894C1023.7 708.954 1031.82 709.008 1036.86 713.947V713.947C1041.72 718.723 1049.54 718.89 1054.54 714.261V714.261C1059.55 709.64 1067.29 709.747 1072.16 714.505L1072.47 714.806C1077.4 719.621 1085.27 719.62 1090.2 714.805V714.805C1095.19 709.939 1103.22 710.056 1108.13 714.997V714.997C1113.02 719.928 1121.06 719.985 1125.96 715.054V715.054C1130.89 710.087 1138.94 710.129 1143.82 715.148L1146 717.386" stroke="black"/>
<path d="M994 727L1000.43 731.269C1005.93 734.917 1013.24 734.221 1017.95 729.6L1018.67 728.894C1023.7 723.954 1031.82 724.008 1036.86 728.947V728.947C1041.72 733.723 1049.54 733.89 1054.54 729.261V729.261C1059.55 724.64 1067.29 724.747 1072.16 729.505L1072.47 729.806C1077.4 734.621 1085.27 734.62 1090.2 729.805V729.805C1095.19 724.939 1103.22 725.056 1108.13 729.997V729.997C1113.02 734.928 1121.06 734.985 1125.96 730.054V730.054C1130.89 725.087 1138.94 725.129 1143.82 730.148L1146 732.386" stroke="black"/>
<path d="M994 742L1000.43 746.269C1005.93 749.917 1013.24 749.221 1017.95 744.6L1018.67 743.894C1023.7 738.954 1031.82 739.008 1036.86 743.947V743.947C1041.72 748.723 1049.54 748.89 1054.54 744.261V744.261C1059.55 739.64 1067.29 739.747 1072.16 744.505L1072.47 744.806C1077.4 749.621 1085.27 749.62 1090.2 744.805V744.805C1095.19 739.939 1103.22 740.056 1108.13 744.997V744.997C1113.02 749.928 1121.06 749.985 1125.96 745.054V745.054C1130.89 740.087 1138.94 740.129 1143.82 745.148L1146 747.386" stroke="black"/>
<path d="M994 757L1000.43 761.269C1005.93 764.917 1013.24 764.221 1017.95 759.6L1018.67 758.894C1023.7 753.954 1031.82 754.008 1036.86 758.947V758.947C1041.72 763.723 1049.54 763.89 1054.54 759.261V759.261C1059.55 754.64 1067.29 754.747 1072.16 759.505L1072.47 759.806C1077.4 764.621 1085.27 764.62 1090.2 759.805V759.805C1095.19 754.939 1103.22 755.056 1108.13 759.997V759.997C1113.02 764.928 1121.06 764.985 1125.96 760.054V760.054C1130.89 755.087 1138.94 755.129 1143.82 760.148L1146 762.386" stroke="black"/>
<path d="M994 772L1000.43 776.269C1005.93 779.917 1013.24 779.221 1017.95 774.6L1018.67 773.894C1023.7 768.954 1031.82 769.008 1036.86 773.947V773.947C1041.72 778.723 1049.54 778.89 1054.54 774.261V774.261C1059.55 769.64 1067.29 769.747 1072.16 774.505L1072.47 774.806C1077.4 779.621 1085.27 779.62 1090.2 774.805V774.805C1095.19 769.939 1103.22 770.056 1108.13 774.997V774.997C1113.02 779.928 1121.06 779.985 1125.96 775.054V775.054C1130.89 770.087 1138.94 770.129 1143.82 775.148L1146 777.386" stroke="black"/>
<circle cx="1445.5" cy="463.5" r="30.5" fill="#FF9890"/>
<defs>
<filter id="filter0_f_1_2" x="-279.914" y="-58.4141" width="1347.83" height="1347.83" filterUnits="userSpaceOnUse" color-interpolation-filters="sRGB">
<feFlood flood-opacity="0" result="BackgroundImageFix"/>
<feBlend mode="normal" in="SourceGraphic" in2="BackgroundImageFix" result="shape"/>
<feGaussianBlur stdDeviation="67.957" result="effect1_foregroundBlur_1_2"/>
</filter>
<filter id="filter1_b_1_2" x="-85.9141" y="-34.9141" width="1771.83" height="1269.83" filterUnits="userSpaceOnUse" color-interpolation-filters="sRGB">
<feFlood flood-opacity="0" result="BackgroundImageFix"/>
<feGaussianBlur in="BackgroundImage" stdDeviation="67.957"/>
<feComposite in2="SourceAlpha" operator="in" result="effect1_backgroundBlur_1_2"/>
<feBlend mode="normal" in="SourceGraphic" in2="effect1_backgroundBlur_1_2" result="shape"/>
</filter>
<filter id="filter2_f_1_2" x="76.6344" y="329.634" width="257.731" height="257.731" filterUnits="userSpaceOnUse" color-interpolation-filters="sRGB">
<feFlood flood-opacity="0" result="BackgroundImageFix"/>
<feBlend mode="normal" in="SourceGraphic" in2="BackgroundImageFix" result="shape"/>
<feGaussianBlur stdDeviation="27.1828" result="effect1_foregroundBlur_1_2"/>
</filter>
<filter id="filter3_bd_1_2" x="36.5" y="331.472" width="1101.75" height="609.028" filterUnits="userSpaceOnUse" color-interpolation-filters="sRGB">
<feFlood flood-opacity="0" result="BackgroundImageFix"/>
<feGaussianBlur in="BackgroundImage" stdDeviation="9.51399"/>
<feComposite in2="SourceAlpha" operator="in" result="effect1_backgroundBlur_1_2"/>
<feColorMatrix in="SourceAlpha" type="matrix" values="0 0 0 0 0 0 0 0 0 0 0 0 0 0 0 0 0 0 127 0" result="hardAlpha"/>
<feOffset dy="70"/>
<feGaussianBlur stdDeviation="20"/>
<feColorMatrix type="matrix" values="0 0 0 0 0.290897 0 0 0 0 0.334135 0 0 0 0 0.738536 0 0 0 0.137074 0"/>
<feBlend mode="normal" in2="effect1_backgroundBlur_1_2" result="effect2_dropShadow_1_2"/>
<feBlend mode="normal" in="SourceGraphic" in2="effect2_dropShadow_1_2" result="shape"/>
</filter>
<radialGradient id="paint0_radial_1_2" cx="0" cy="0" r="1" gradientUnits="userSpaceOnUse" gradientTransform="translate(816.717 613.662) rotate(91.6035) scale(830.285)">
<stop stop-color="#FFD9D7"/>
<stop offset="1" stop-color="#F2EEFF"/>
</radialGradient>
<linearGradient id="paint1_linear_1_2" x1="547.074" y1="821.932" x2="505.076" y2="767.454" gradientUnits="userSpaceOnUse">
<stop/>
<stop offset="1" stop-color="#D8D8D8"/>
</linearGradient>
<linearGradient id="paint2_linear_1_2" x1="119.125" y1="763.796" x2="896.609" y2="763.796" gradientUnits="userSpaceOnUse">
<stop stop-color="white" stop-opacity="0.14"/>
<stop offset="1" stop-color="white" stop-opacity="0.6"/>
</linearGradient>
</defs>
</svg>
